{"title":"Peter Weir - The Year of Living Dangerously (1982)","uid":5154598,"size":1036436603,"categoryP":"video","categoryS":"movies","magnet":"?xt=urn:btih:18d22155e2d36469721b044ea3cd2659ed62dfd9&amp;dn=Peter+Weir+-+The+Year+of+Living+Dangerously+%281982%29&amp;tr=udp%3A%2F%2Ftracker.openbittorrent.com%3A80&amp;tr=udp%3A%2F%2Fopen.demonii.com%3A1337&amp;tr=udp%3A%2F%2Ftracker.coppersurfer.tk%3A6969&amp;tr=udp%3A%2F%2Fexodus.desync.com%3A6969","seeders":7,"leechers":0,"uploader":"mfccorrea","files":5,"time":1257775113,"description":"Mel Gibson stars in this period political thriller directed by Peter Weir. Set in Indonesia during the 1965 coup against President Sukarno, the film stars Gibson as Guy Hamilton, an Australian wire-service reporter covering the scene. Whenever Hamilton becomes too glib or indifferent for his own good, he is brought back to earth by his &quot;conscience,&quot; photographer Billy Kwan (played in male drag by diminutive actress Linda Hunt, who won an Academy Award for her performance). As all of Jakarta sinks into disarray, Hamilton pursues a romance with British attachÃƒÂ© Jill Bryant (Sigourney Weaver). Filmed on location in the Philippines and Australia, the film was financed by MGM, in the first such American-Australian financial collaboration.\n\n\n   General\n      Complete name : The year of living dangerously.avi\n      Format : AVI\n      Format/Info : Audio Video Interleave\n      File size : 988 MiB\n      Duration : 1h 58mn\n      Overall bit rate : 1 164 Kbps\n      Writing application : VirtualDubMod 1.5.4.1 (build 2178/release)\n      Writing library : VirtualDubMod build 2178/release\n   Video #0\n      ID : 0\n      Format : MPEG-4 Visual\n      Format profile : AdvancedSimple@L5\n      Format settings, BVOP : Yes\n      Format settings, QPel : No\n      Format settings, GMC : No warppoints\n      Format settings, Matrix : Default (H.263)\n      Muxing mode : Packed bitstream\n      Codec ID : XVID\n      Codec ID/Hint : XviD\n      Duration : 1h 58mn\n      Bit rate : 1 111 Kbps\n      Width : 576 pixels\n      Height : 256 pixels\n      Display aspect ratio : 2.25:1\n      Frame rate : 23.976 fps\n      Resolution : 24 bits\n      Colorimetry : 4:2:0\n      Scan type : Progressive\n      Bits/(Pixel*Frame) : 0.314\n      Stream size : 943 MiB (95%)\n      Writing library : XviD 1.2.0.dev47 (UTC 2006-11-01)\n   Audio #1\n      ID : 1\n      Format : MPEG Audio\n      Format version : Version 1\n      Format profile : Layer 3\n      Codec ID : 55\n      Codec ID/Hint : MP3\n      Duration : 1h 54mn\n      Bit rate mode : Constant\n      Bit rate : 48.0 Kbps\n      Channel(s) : 1 channel\n      Sampling rate : 32.0 KHz\n      Resolution : 16 bits\n      Stream size : 39.4 MiB (4%)\n      Alignment : Aligned on interleaves\n      Interleave, duration : 86 ms (2.07 video frames)\n      Interleave, preload duration : 504 ms\n      Writing library : LAME3.97 \n      Encoding settings : -m m -V 4 -q 2 -lowpass 11.3 -b 48\n      Language : English\n\nEnglish audio; English, French, Spanish and Portuguese subtitles\n\nIMDB: tt0086617","torrent":{"xt":"urn:btih:18d22155e2d36469721b044ea3cd2659ed62dfd9","amp;dn":"Peter+Weir+-+The+Year+of+Living+Dangerously+%281982%29","amp;tr":["udp%3A%2F%2Ftracker.openbittorrent.com%3A80","udp%3A%2F%2Fopen.demonii.com%3A1337","udp%3A%2F%2Ftracker.coppersurfer.tk%3A6969","udp%3A%2F%2Fexodus.desync.com%3A6969"],"infoHash":"18d22155e2d36469721b044ea3cd2659ed62dfd9","infoHashBuffer":{"type":"Buffer","data":[24,210,33,85,226,211,100,105,114,27,4,78,163,205,38,89,237,98,223,217]},"announce":[],"urlList":[]}}